<svg width="500" height="500" viewBox="0 0 500 500" fill="none" xmlns="http://www.w3.org/2000/svg">
<path d="M43.4937 130.773L250 11.547L456.506 130.773V369.227L250 488.453L43.4937 369.227V130.773Z" fill="#0A192F" stroke="#64FFDA" stroke-width="20"/>
<path d="M236.938 350H175.219V150H239.672C259.073 150 275.674 154.004 289.477 162.012C303.279 169.954 313.858 181.38 321.215 196.289C328.572 211.133 332.25 228.906 332.25 249.609C332.25 270.443 328.539 288.379 321.117 303.418C313.695 318.392 302.888 329.915 288.695 337.988C274.503 345.996 257.25 350 236.938 350ZM199.438 328.516H235.375C251.911 328.516 265.616 325.326 276.488 318.945C287.361 312.565 295.466 303.483 300.805 291.699C306.143 279.915 308.812 265.885 308.812 249.609C308.812 233.464 306.176 219.564 300.902 207.91C295.629 196.191 287.751 187.207 277.27 180.957C266.788 174.642 253.734 171.484 238.109 171.484H199.438V328.516Z" fill="#64FFDA"/>
</svg>
